solid OpenSCAD_Model
  facet normal -1 0 0
    outer loop
      vertex -18.91 -14.4 3
      vertex -18.91 -11.2 8
      vertex -18.91 -11.2 3
    endloop
  endfacet
  facet normal -1 -0 0
    outer loop
      vertex -18.91 -11.2 8
      vertex -18.91 -14.4 3
      vertex -18.91 -14.4 8
    endloop
  endfacet
  facet normal -0 0 1
    outer loop
      vertex -18.91 -11.2 8
      vertex -18.11 -14.4 8
      vertex -18.11 -11.2 8
    endloop
  endfacet
  facet normal 0 0 1
    outer loop
      vertex -18.11 -14.4 8
      vertex -18.91 -11.2 8
      vertex -18.91 -14.4 8
    endloop
  endfacet
  facet normal 1 -0 0
    outer loop
      vertex -18.11 -14.4 8
      vertex -18.11 -11.2 3
      vertex -18.11 -11.2 8
    endloop
  endfacet
  facet normal 1 0 0
    outer loop
      vertex -18.11 -11.2 3
      vertex -18.11 -14.4 8
      vertex -18.11 -14.4 3
    endloop
  endfacet
  facet normal 0 1 -0
    outer loop
      vertex -18.11 -11.2 3
      vertex -18.91 -11.2 8
      vertex -18.11 -11.2 8
    endloop
  endfacet
  facet normal 0 1 0
    outer loop
      vertex -18.91 -11.2 8
      vertex -18.11 -11.2 3
      vertex -18.91 -11.2 3
    endloop
  endfacet
  facet normal 0 -1 0
    outer loop
      vertex -18.91 -14.4 3
      vertex -18.11 -14.4 8
      vertex -18.91 -14.4 8
    endloop
  endfacet
  facet normal 0 -1 -0
    outer loop
      vertex -18.11 -14.4 8
      vertex -18.91 -14.4 3
      vertex -18.11 -14.4 3
    endloop
  endfacet
  facet normal -1 0 0
    outer loop
      vertex -8.75 -14.4 3
      vertex -8.75 -11.2 8
      vertex -8.75 -11.2 3
    endloop
  endfacet
  facet normal -1 -0 0
    outer loop
      vertex -8.75 -11.2 8
      vertex -8.75 -14.4 3
      vertex -8.75 -14.4 8
    endloop
  endfacet
  facet normal -0 0 1
    outer loop
      vertex -8.75 -11.2 8
      vertex -7.95 -14.4 8
      vertex -7.95 -11.2 8
    endloop
  endfacet
  facet normal 0 0 1
    outer loop
      vertex -7.95 -14.4 8
      vertex -8.75 -11.2 8
      vertex -8.75 -14.4 8
    endloop
  endfacet
  facet normal 1 -0 0
    outer loop
      vertex -7.95 -14.4 8
      vertex -7.95 -11.2 3
      vertex -7.95 -11.2 8
    endloop
  endfacet
  facet normal 1 0 0
    outer loop
      vertex -7.95 -11.2 3
      vertex -7.95 -14.4 8
      vertex -7.95 -14.4 3
    endloop
  endfacet
  facet normal 0 -1 0
    outer loop
      vertex -8.75 -14.4 3
      vertex -7.95 -14.4 8
      vertex -8.75 -14.4 8
    endloop
  endfacet
  facet normal 0 -1 -0
    outer loop
      vertex -7.95 -14.4 8
      vertex -8.75 -14.4 3
      vertex -7.95 -14.4 3
    endloop
  endfacet
  facet normal 0 1 -0
    outer loop
      vertex -7.95 -11.2 3
      vertex -8.75 -11.2 8
      vertex -7.95 -11.2 8
    endloop
  endfacet
  facet normal 0 1 0
    outer loop
      vertex -8.75 -11.2 8
      vertex -7.95 -11.2 3
      vertex -8.75 -11.2 3
    endloop
  endfacet
  facet normal -1 0 0
    outer loop
      vertex 3.95 -14.4 3
      vertex 3.95 -11.2 8
      vertex 3.95 -11.2 3
    endloop
  endfacet
  facet normal -1 -0 0
    outer loop
      vertex 3.95 -11.2 8
      vertex 3.95 -14.4 3
      vertex 3.95 -14.4 8
    endloop
  endfacet
  facet normal -0 0 1
    outer loop
      vertex 3.95 -11.2 8
      vertex 4.75 -14.4 8
      vertex 4.75 -11.2 8
    endloop
  endfacet
  facet normal 0 0 1
    outer loop
      vertex 4.75 -14.4 8
      vertex 3.95 -11.2 8
      vertex 3.95 -14.4 8
    endloop
  endfacet
  facet normal 1 -0 0
    outer loop
      vertex 4.75 -14.4 8
      vertex 4.75 -11.2 3
      vertex 4.75 -11.2 8
    endloop
  endfacet
  facet normal 1 0 0
    outer loop
      vertex 4.75 -11.2 3
      vertex 4.75 -14.4 8
      vertex 4.75 -14.4 3
    endloop
  endfacet
  facet normal 0 1 -0
    outer loop
      vertex 4.75 -11.2 3
      vertex 3.95 -11.2 8
      vertex 4.75 -11.2 8
    endloop
  endfacet
  facet normal 0 1 0
    outer loop
      vertex 3.95 -11.2 8
      vertex 4.75 -11.2 3
      vertex 3.95 -11.2 3
    endloop
  endfacet
  facet normal 0 -1 0
    outer loop
      vertex 3.95 -14.4 3
      vertex 4.75 -14.4 8
      vertex 3.95 -14.4 8
    endloop
  endfacet
  facet normal 0 -1 -0
    outer loop
      vertex 4.75 -14.4 8
      vertex 3.95 -14.4 3
      vertex 4.75 -14.4 3
    endloop
  endfacet
  facet normal -1 0 0
    outer loop
      vertex 14.11 -14.4 3
      vertex 14.11 -11.2 8
      vertex 14.11 -11.2 3
    endloop
  endfacet
  facet normal -1 -0 0
    outer loop
      vertex 14.11 -11.2 8
      vertex 14.11 -14.4 3
      vertex 14.11 -14.4 8
    endloop
  endfacet
  facet normal -0 0 1
    outer loop
      vertex 14.11 -11.2 8
      vertex 14.91 -14.4 8
      vertex 14.91 -11.2 8
    endloop
  endfacet
  facet normal 0 0 1
    outer loop
      vertex 14.91 -14.4 8
      vertex 14.11 -11.2 8
      vertex 14.11 -14.4 8
    endloop
  endfacet
  facet normal 1 -0 0
    outer loop
      vertex 14.91 -14.4 8
      vertex 14.91 -11.2 3
      vertex 14.91 -11.2 8
    endloop
  endfacet
  facet normal 1 0 0
    outer loop
      vertex 14.91 -11.2 3
      vertex 14.91 -14.4 8
      vertex 14.91 -14.4 3
    endloop
  endfacet
  facet normal 0 -1 0
    outer loop
      vertex 14.11 -14.4 3
      vertex 14.91 -14.4 8
      vertex 14.11 -14.4 8
    endloop
  endfacet
  facet normal 0 -1 -0
    outer loop
      vertex 14.91 -14.4 8
      vertex 14.11 -14.4 3
      vertex 14.91 -14.4 3
    endloop
  endfacet
  facet normal 0 1 -0
    outer loop
      vertex 14.91 -11.2 3
      vertex 14.11 -11.2 8
      vertex 14.91 -11.2 8
    endloop
  endfacet
  facet normal 0 1 0
    outer loop
      vertex 14.11 -11.2 8
      vertex 14.91 -11.2 3
      vertex 14.11 -11.2 3
    endloop
  endfacet
  facet normal -1 0 0
    outer loop
      vertex -23.7 -14.4 3
      vertex -23.7 -11.2 11
      vertex -23.7 -11.2 3
    endloop
  endfacet
  facet normal -1 -0 0
    outer loop
      vertex -23.7 -11.2 11
      vertex -23.7 -14.4 3
      vertex -23.7 -14.4 11
    endloop
  endfacet
  facet normal -0 0 1
    outer loop
      vertex -23.7 -11.2 11
      vertex -22.2 -14.4 11
      vertex -22.2 -11.2 11
    endloop
  endfacet
  facet normal 0 0 1
    outer loop
      vertex -22.2 -14.4 11
      vertex -23.7 -11.2 11
      vertex -23.7 -14.4 11
    endloop
  endfacet
  facet normal 1 -0 0
    outer loop
      vertex -22.2 -14.4 11
      vertex -22.2 -11.2 3
      vertex -22.2 -11.2 11
    endloop
  endfacet
  facet normal 1 0 0
    outer loop
      vertex -22.2 -11.2 3
      vertex -22.2 -14.4 11
      vertex -22.2 -14.4 3
    endloop
  endfacet
  facet normal 0 -1 0
    outer loop
      vertex -23.7 -14.4 3
      vertex -22.2 -14.4 11
      vertex -23.7 -14.4 11
    endloop
  endfacet
  facet normal 0 -1 -0
    outer loop
      vertex -22.2 -14.4 11
      vertex -23.7 -14.4 3
      vertex -22.2 -14.4 3
    endloop
  endfacet
  facet normal 0 1 -0
    outer loop
      vertex -22.2 -11.2 3
      vertex -23.7 -11.2 11
      vertex -22.2 -11.2 11
    endloop
  endfacet
  facet normal 0 1 0
    outer loop
      vertex -23.7 -11.2 11
      vertex -22.2 -11.2 3
      vertex -23.7 -11.2 3
    endloop
  endfacet
  facet normal -1 0 0
    outer loop
      vertex 18.2 -14.4 3
      vertex 18.2 -11.2 11
      vertex 18.2 -11.2 3
    endloop
  endfacet
  facet normal -1 -0 0
    outer loop
      vertex 18.2 -11.2 11
      vertex 18.2 -14.4 3
      vertex 18.2 -14.4 11
    endloop
  endfacet
  facet normal -0 0 1
    outer loop
      vertex 18.2 -11.2 11
      vertex 19.7 -14.4 11
      vertex 19.7 -11.2 11
    endloop
  endfacet
  facet normal 0 0 1
    outer loop
      vertex 19.7 -14.4 11
      vertex 18.2 -11.2 11
      vertex 18.2 -14.4 11
    endloop
  endfacet
  facet normal 1 -0 0
    outer loop
      vertex 19.7 -14.4 11
      vertex 19.7 -11.2 3
      vertex 19.7 -11.2 11
    endloop
  endfacet
  facet normal 1 0 0
    outer loop
      vertex 19.7 -11.2 3
      vertex 19.7 -14.4 11
      vertex 19.7 -14.4 3
    endloop
  endfacet
  facet normal 0 1 -0
    outer loop
      vertex 19.7 -11.2 3
      vertex 18.2 -11.2 11
      vertex 19.7 -11.2 11
    endloop
  endfacet
  facet normal 0 1 0
    outer loop
      vertex 18.2 -11.2 11
      vertex 19.7 -11.2 3
      vertex 18.2 -11.2 3
    endloop
  endfacet
  facet normal 0 -1 0
    outer loop
      vertex 18.2 -14.4 3
      vertex 19.7 -14.4 11
      vertex 18.2 -14.4 11
    endloop
  endfacet
  facet normal 0 -1 -0
    outer loop
      vertex 19.7 -14.4 11
      vertex 18.2 -14.4 3
      vertex 19.7 -14.4 3
    endloop
  endfacet
  facet normal -1 0 0
    outer loop
      vertex -18.91 11.2 3
      vertex -18.91 14.4 8
      vertex -18.91 14.4 3
    endloop
  endfacet
  facet normal -1 -0 0
    outer loop
      vertex -18.91 14.4 8
      vertex -18.91 11.2 3
      vertex -18.91 11.2 8
    endloop
  endfacet
  facet normal -0 0 1
    outer loop
      vertex -18.91 14.4 8
      vertex -18.11 11.2 8
      vertex -18.11 14.4 8
    endloop
  endfacet
  facet normal 0 0 1
    outer loop
      vertex -18.11 11.2 8
      vertex -18.91 14.4 8
      vertex -18.91 11.2 8
    endloop
  endfacet
  facet normal 1 -0 0
    outer loop
      vertex -18.11 11.2 8
      vertex -18.11 14.4 3
      vertex -18.11 14.4 8
    endloop
  endfacet
  facet normal 1 0 0
    outer loop
      vertex -18.11 14.4 3
      vertex -18.11 11.2 8
      vertex -18.11 11.2 3
    endloop
  endfacet
  facet normal 0 1 -0
    outer loop
      vertex -18.11 14.4 3
      vertex -18.91 14.4 8
      vertex -18.11 14.4 8
    endloop
  endfacet
  facet normal 0 1 0
    outer loop
      vertex -18.91 14.4 8
      vertex -18.11 14.4 3
      vertex -18.91 14.4 3
    endloop
  endfacet
  facet normal 0 -1 0
    outer loop
      vertex -18.91 11.2 3
      vertex -18.11 11.2 8
      vertex -18.91 11.2 8
    endloop
  endfacet
  facet normal 0 -1 -0
    outer loop
      vertex -18.11 11.2 8
      vertex -18.91 11.2 3
      vertex -18.11 11.2 3
    endloop
  endfacet
  facet normal -1 0 0
    outer loop
      vertex -8.75 11.2 3
      vertex -8.75 14.4 8
      vertex -8.75 14.4 3
    endloop
  endfacet
  facet normal -1 -0 0
    outer loop
      vertex -8.75 14.4 8
      vertex -8.75 11.2 3
      vertex -8.75 11.2 8
    endloop
  endfacet
  facet normal -0 0 1
    outer loop
      vertex -8.75 14.4 8
      vertex -7.95 11.2 8
      vertex -7.95 14.4 8
    endloop
  endfacet
  facet normal 0 0 1
    outer loop
      vertex -7.95 11.2 8
      vertex -8.75 14.4 8
      vertex -8.75 11.2 8
    endloop
  endfacet
  facet normal 1 -0 0
    outer loop
      vertex -7.95 11.2 8
      vertex -7.95 14.4 3
      vertex -7.95 14.4 8
    endloop
  endfacet
  facet normal 1 0 0
    outer loop
      vertex -7.95 14.4 3
      vertex -7.95 11.2 8
      vertex -7.95 11.2 3
    endloop
  endfacet
  facet normal 0 1 -0
    outer loop
      vertex -7.95 14.4 3
      vertex -8.75 14.4 8
      vertex -7.95 14.4 8
    endloop
  endfacet
  facet normal 0 1 0
    outer loop
      vertex -8.75 14.4 8
      vertex -7.95 14.4 3
      vertex -8.75 14.4 3
    endloop
  endfacet
  facet normal 0 -1 0
    outer loop
      vertex -8.75 11.2 3
      vertex -7.95 11.2 8
      vertex -8.75 11.2 8
    endloop
  endfacet
  facet normal 0 -1 -0
    outer loop
      vertex -7.95 11.2 8
      vertex -8.75 11.2 3
      vertex -7.95 11.2 3
    endloop
  endfacet
  facet normal -1 0 0
    outer loop
      vertex 3.95 11.2 3
      vertex 3.95 14.4 8
      vertex 3.95 14.4 3
    endloop
  endfacet
  facet normal -1 -0 0
    outer loop
      vertex 3.95 14.4 8
      vertex 3.95 11.2 3
      vertex 3.95 11.2 8
    endloop
  endfacet
  facet normal -0 0 1
    outer loop
      vertex 3.95 14.4 8
      vertex 4.75 11.2 8
      vertex 4.75 14.4 8
    endloop
  endfacet
  facet normal 0 0 1
    outer loop
      vertex 4.75 11.2 8
      vertex 3.95 14.4 8
      vertex 3.95 11.2 8
    endloop
  endfacet
  facet normal 1 -0 0
    outer loop
      vertex 4.75 11.2 8
      vertex 4.75 14.4 3
      vertex 4.75 14.4 8
    endloop
  endfacet
  facet normal 1 0 0
    outer loop
      vertex 4.75 14.4 3
      vertex 4.75 11.2 8
      vertex 4.75 11.2 3
    endloop
  endfacet
  facet normal 0 -1 0
    outer loop
      vertex 3.95 11.2 3
      vertex 4.75 11.2 8
      vertex 3.95 11.2 8
    endloop
  endfacet
  facet normal 0 -1 -0
    outer loop
      vertex 4.75 11.2 8
      vertex 3.95 11.2 3
      vertex 4.75 11.2 3
    endloop
  endfacet
  facet normal 0 1 -0
    outer loop
      vertex 4.75 14.4 3
      vertex 3.95 14.4 8
      vertex 4.75 14.4 8
    endloop
  endfacet
  facet normal 0 1 0
    outer loop
      vertex 3.95 14.4 8
      vertex 4.75 14.4 3
      vertex 3.95 14.4 3
    endloop
  endfacet
  facet normal -1 0 0
    outer loop
      vertex 14.11 11.2 3
      vertex 14.11 14.4 8
      vertex 14.11 14.4 3
    endloop
  endfacet
  facet normal -1 -0 0
    outer loop
      vertex 14.11 14.4 8
      vertex 14.11 11.2 3
      vertex 14.11 11.2 8
    endloop
  endfacet
  facet normal -0 0 1
    outer loop
      vertex 14.11 14.4 8
      vertex 14.91 11.2 8
      vertex 14.91 14.4 8
    endloop
  endfacet
  facet normal 0 0 1
    outer loop
      vertex 14.91 11.2 8
      vertex 14.11 14.4 8
      vertex 14.11 11.2 8
    endloop
  endfacet
  facet normal 1 -0 0
    outer loop
      vertex 14.91 11.2 8
      vertex 14.91 14.4 3
      vertex 14.91 14.4 8
    endloop
  endfacet
  facet normal 1 0 0
    outer loop
      vertex 14.91 14.4 3
      vertex 14.91 11.2 8
      vertex 14.91 11.2 3
    endloop
  endfacet
  facet normal 0 -1 0
    outer loop
      vertex 14.11 11.2 3
      vertex 14.91 11.2 8
      vertex 14.11 11.2 8
    endloop
  endfacet
  facet normal 0 -1 -0
    outer loop
      vertex 14.91 11.2 8
      vertex 14.11 11.2 3
      vertex 14.91 11.2 3
    endloop
  endfacet
  facet normal 0 1 -0
    outer loop
      vertex 14.91 14.4 3
      vertex 14.11 14.4 8
      vertex 14.91 14.4 8
    endloop
  endfacet
  facet normal 0 1 0
    outer loop
      vertex 14.11 14.4 8
      vertex 14.91 14.4 3
      vertex 14.11 14.4 3
    endloop
  endfacet
  facet normal -1 0 0
    outer loop
      vertex -23.7 11.2 3
      vertex -23.7 14.4 11
      vertex -23.7 14.4 3
    endloop
  endfacet
  facet normal -1 -0 0
    outer loop
      vertex -23.7 14.4 11
      vertex -23.7 11.2 3
      vertex -23.7 11.2 11
    endloop
  endfacet
  facet normal -0 0 1
    outer loop
      vertex -23.7 14.4 11
      vertex -22.2 11.2 11
      vertex -22.2 14.4 11
    endloop
  endfacet
  facet normal 0 0 1
    outer loop
      vertex -22.2 11.2 11
      vertex -23.7 14.4 11
      vertex -23.7 11.2 11
    endloop
  endfacet
  facet normal 1 -0 0
    outer loop
      vertex -22.2 11.2 11
      vertex -22.2 14.4 3
      vertex -22.2 14.4 11
    endloop
  endfacet
  facet normal 1 0 0
    outer loop
      vertex -22.2 14.4 3
      vertex -22.2 11.2 11
      vertex -22.2 11.2 3
    endloop
  endfacet
  facet normal 0 -1 0
    outer loop
      vertex -23.7 11.2 3
      vertex -22.2 11.2 11
      vertex -23.7 11.2 11
    endloop
  endfacet
  facet normal 0 -1 -0
    outer loop
      vertex -22.2 11.2 11
      vertex -23.7 11.2 3
      vertex -22.2 11.2 3
    endloop
  endfacet
  facet normal 0 1 -0
    outer loop
      vertex -22.2 14.4 3
      vertex -23.7 14.4 11
      vertex -22.2 14.4 11
    endloop
  endfacet
  facet normal 0 1 0
    outer loop
      vertex -23.7 14.4 11
      vertex -22.2 14.4 3
      vertex -23.7 14.4 3
    endloop
  endfacet
  facet normal -1 0 0
    outer loop
      vertex 18.2 11.2 3
      vertex 18.2 14.4 11
      vertex 18.2 14.4 3
    endloop
  endfacet
  facet normal -1 -0 0
    outer loop
      vertex 18.2 14.4 11
      vertex 18.2 11.2 3
      vertex 18.2 11.2 11
    endloop
  endfacet
  facet normal -0 0 1
    outer loop
      vertex 18.2 14.4 11
      vertex 19.7 11.2 11
      vertex 19.7 14.4 11
    endloop
  endfacet
  facet normal 0 0 1
    outer loop
      vertex 19.7 11.2 11
      vertex 18.2 14.4 11
      vertex 18.2 11.2 11
    endloop
  endfacet
  facet normal 1 -0 0
    outer loop
      vertex 19.7 11.2 11
      vertex 19.7 14.4 3
      vertex 19.7 14.4 11
    endloop
  endfacet
  facet normal 1 0 0
    outer loop
      vertex 19.7 14.4 3
      vertex 19.7 11.2 11
      vertex 19.7 11.2 3
    endloop
  endfacet
  facet normal 0 -1 0
    outer loop
      vertex 18.2 11.2 3
      vertex 19.7 11.2 11
      vertex 18.2 11.2 11
    endloop
  endfacet
  facet normal 0 -1 -0
    outer loop
      vertex 19.7 11.2 11
      vertex 18.2 11.2 3
      vertex 19.7 11.2 3
    endloop
  endfacet
  facet normal 0 1 -0
    outer loop
      vertex 19.7 14.4 3
      vertex 18.2 14.4 11
      vertex 19.7 14.4 11
    endloop
  endfacet
  facet normal 0 1 0
    outer loop
      vertex 18.2 14.4 11
      vertex 19.7 14.4 3
      vertex 18.2 14.4 3
    endloop
  endfacet
  facet normal -1 0 0
    outer loop
      vertex -34 17 0
      vertex -34 7 14
      vertex -34 17 28
    endloop
  endfacet
  facet normal -1 0 0
    outer loop
      vertex -34 17 0
      vertex -34 -7 14
      vertex -34 7 14
    endloop
  endfacet
  facet normal -1 0 0
    outer loop
      vertex -34 -17 28
      vertex -34 -7 14
      vertex -34 -17 0
    endloop
  endfacet
  facet normal -1 0 0
    outer loop
      vertex -34 -17 0
      vertex -34 -7 14
      vertex -34 17 0
    endloop
  endfacet
  facet normal -1 0 0
    outer loop
      vertex -34 7 26
      vertex -34 17 28
      vertex -34 7 14
    endloop
  endfacet
  facet normal -1 0 0
    outer loop
      vertex -34 -7 26
      vertex -34 17 28
      vertex -34 7 26
    endloop
  endfacet
  facet normal -1 0 0
    outer loop
      vertex -34 -7 26
      vertex -34 -17 28
      vertex -34 17 28
    endloop
  endfacet
  facet normal -1 0 0
    outer loop
      vertex -34 -7 14
      vertex -34 -17 28
      vertex -34 -7 26
    endloop
  endfacet
  facet normal -0 0 1
    outer loop
      vertex -23.7 11.2 3
      vertex -22.2 -11.2 3
      vertex -22.2 11.2 3
    endloop
  endfacet
  facet normal 0 0 1
    outer loop
      vertex -22.2 -11.2 3
      vertex -23.7 11.2 3
      vertex -23.7 -11.2 3
    endloop
  endfacet
  facet normal -0 0 1
    outer loop
      vertex -18.91 11.2 3
      vertex -18.11 -11.2 3
      vertex -18.11 11.2 3
    endloop
  endfacet
  facet normal 0 0 1
    outer loop
      vertex -18.11 -11.2 3
      vertex -18.91 11.2 3
      vertex -18.91 -11.2 3
    endloop
  endfacet
  facet normal -0 0 1
    outer loop
      vertex -8.75 11.2 3
      vertex -7.95 -11.2 3
      vertex -7.95 11.2 3
    endloop
  endfacet
  facet normal 0 0 1
    outer loop
      vertex -7.95 -11.2 3
      vertex -8.75 11.2 3
      vertex -8.75 -11.2 3
    endloop
  endfacet
  facet normal -0 0 1
    outer loop
      vertex 3.95 11.2 3
      vertex 4.75 -11.2 3
      vertex 4.75 11.2 3
    endloop
  endfacet
  facet normal 0 0 1
    outer loop
      vertex 4.75 -11.2 3
      vertex 3.95 11.2 3
      vertex 3.95 -11.2 3
    endloop
  endfacet
  facet normal -0 0 1
    outer loop
      vertex 14.11 11.2 3
      vertex 14.91 -11.2 3
      vertex 14.91 11.2 3
    endloop
  endfacet
  facet normal 0 0 1
    outer loop
      vertex 14.91 -11.2 3
      vertex 14.11 11.2 3
      vertex 14.11 -11.2 3
    endloop
  endfacet
  facet normal -0 0 1
    outer loop
      vertex 18.2 11.2 3
      vertex 19.7 -11.2 3
      vertex 19.7 11.2 3
    endloop
  endfacet
  facet normal 0 0 1
    outer loop
      vertex 19.7 -11.2 3
      vertex 18.2 11.2 3
      vertex 18.2 -11.2 3
    endloop
  endfacet
  facet normal 0 0 1
    outer loop
      vertex 19.7 11.2 3
      vertex 34 17 3
      vertex 19.7 14.4 3
    endloop
  endfacet
  facet normal 0 0 1
    outer loop
      vertex 34 17 3
      vertex 18.2 14.4 3
      vertex 19.7 14.4 3
    endloop
  endfacet
  facet normal 0 0 1
    outer loop
      vertex 14.91 11.2 3
      vertex 18.2 11.2 3
      vertex 18.2 14.4 3
    endloop
  endfacet
  facet normal 0 0 1
    outer loop
      vertex 18.2 11.2 3
      vertex 14.91 11.2 3
      vertex 18.2 -11.2 3
    endloop
  endfacet
  facet normal 0 0 1
    outer loop
      vertex 14.91 11.2 3
      vertex 18.2 14.4 3
      vertex 14.91 14.4 3
    endloop
  endfacet
  facet normal 0 0 1
    outer loop
      vertex 34 17 3
      vertex 14.91 14.4 3
      vertex 18.2 14.4 3
    endloop
  endfacet
  facet normal 0 0 1
    outer loop
      vertex 34 17 3
      vertex 14.11 14.4 3
      vertex 14.91 14.4 3
    endloop
  endfacet
  facet normal 0 0 1
    outer loop
      vertex 4.75 11.2 3
      vertex 14.11 11.2 3
      vertex 14.11 14.4 3
    endloop
  endfacet
  facet normal 0 0 1
    outer loop
      vertex 14.11 11.2 3
      vertex 4.75 11.2 3
      vertex 14.11 -11.2 3
    endloop
  endfacet
  facet normal 0 0 1
    outer loop
      vertex 4.75 11.2 3
      vertex 14.11 14.4 3
      vertex 4.75 14.4 3
    endloop
  endfacet
  facet normal 0 0 1
    outer loop
      vertex 34 17 3
      vertex 4.75 14.4 3
      vertex 14.11 14.4 3
    endloop
  endfacet
  facet normal 0 0 1
    outer loop
      vertex 34 17 3
      vertex 3.95 14.4 3
      vertex 4.75 14.4 3
    endloop
  endfacet
  facet normal 0 0 1
    outer loop
      vertex -7.95 11.2 3
      vertex 3.95 11.2 3
      vertex 3.95 14.4 3
    endloop
  endfacet
  facet normal 0 0 1
    outer loop
      vertex 3.95 11.2 3
      vertex -7.95 11.2 3
      vertex 3.95 -11.2 3
    endloop
  endfacet
  facet normal 0 0 1
    outer loop
      vertex -7.95 11.2 3
      vertex 3.95 14.4 3
      vertex -7.95 14.4 3
    endloop
  endfacet
  facet normal -0 0 1
    outer loop
      vertex -30 17 3
      vertex 3.95 14.4 3
      vertex 34 17 3
    endloop
  endfacet
  facet normal 0 0 1
    outer loop
      vertex 3.95 14.4 3
      vertex -30 17 3
      vertex -7.95 14.4 3
    endloop
  endfacet
  facet normal 0 0 1
    outer loop
      vertex -18.11 11.2 3
      vertex -8.75 11.2 3
      vertex -8.75 14.4 3
    endloop
  endfacet
  facet normal 0 0 1
    outer loop
      vertex -8.75 11.2 3
      vertex -18.11 11.2 3
      vertex -8.75 -11.2 3
    endloop
  endfacet
  facet normal 0 0 1
    outer loop
      vertex -18.11 11.2 3
      vertex -8.75 14.4 3
      vertex -18.11 14.4 3
    endloop
  endfacet
  facet normal 0 0 1
    outer loop
      vertex -7.95 14.4 3
      vertex -30 17 3
      vertex -8.75 14.4 3
    endloop
  endfacet
  facet normal 0 0 1
    outer loop
      vertex -8.75 14.4 3
      vertex -30 17 3
      vertex -18.11 14.4 3
    endloop
  endfacet
  facet normal 0 0 1
    outer loop
      vertex -22.2 11.2 3
      vertex -18.91 11.2 3
      vertex -18.91 14.4 3
    endloop
  endfacet
  facet normal 0 0 1
    outer loop
      vertex -18.91 11.2 3
      vertex -22.2 11.2 3
      vertex -18.91 -11.2 3
    endloop
  endfacet
  facet normal 0 0 1
    outer loop
      vertex -22.2 11.2 3
      vertex -18.91 14.4 3
      vertex -22.2 14.4 3
    endloop
  endfacet
  facet normal 0 0 1
    outer loop
      vertex -18.11 14.4 3
      vertex -30 17 3
      vertex -18.91 14.4 3
    endloop
  endfacet
  facet normal 0 0 1
    outer loop
      vertex -18.91 14.4 3
      vertex -30 17 3
      vertex -22.2 14.4 3
    endloop
  endfacet
  facet normal 0 0 1
    outer loop
      vertex -30 17 3
      vertex -23.7 11.2 3
      vertex -23.7 14.4 3
    endloop
  endfacet
  facet normal 0 0 1
    outer loop
      vertex -23.7 11.2 3
      vertex -30 17 3
      vertex -23.7 -11.2 3
    endloop
  endfacet
  facet normal 0 0 1
    outer loop
      vertex -30 -17 3
      vertex -23.7 -11.2 3
      vertex -30 17 3
    endloop
  endfacet
  facet normal 0 0 1
    outer loop
      vertex -22.2 14.4 3
      vertex -30 17 3
      vertex -23.7 14.4 3
    endloop
  endfacet
  facet normal 0 0 1
    outer loop
      vertex 34 17 3
      vertex 19.7 11.2 3
      vertex 34 -17 3
    endloop
  endfacet
  facet normal -0 0 1
    outer loop
      vertex 19.7 -11.2 3
      vertex 34 -17 3
      vertex 19.7 11.2 3
    endloop
  endfacet
  facet normal -0 0 1
    outer loop
      vertex 19.7 -14.4 3
      vertex 34 -17 3
      vertex 19.7 -11.2 3
    endloop
  endfacet
  facet normal -0 0 1
    outer loop
      vertex 18.2 -14.4 3
      vertex 34 -17 3
      vertex 19.7 -14.4 3
    endloop
  endfacet
  facet normal 0 0 1
    outer loop
      vertex 14.91 -11.2 3
      vertex 18.2 -11.2 3
      vertex 14.91 11.2 3
    endloop
  endfacet
  facet normal 0 0 1
    outer loop
      vertex 18.2 -11.2 3
      vertex 14.91 -11.2 3
      vertex 18.2 -14.4 3
    endloop
  endfacet
  facet normal 0 0 1
    outer loop
      vertex 14.91 -14.4 3
      vertex 18.2 -14.4 3
      vertex 14.91 -11.2 3
    endloop
  endfacet
  facet normal -0 0 1
    outer loop
      vertex 14.91 -14.4 3
      vertex 34 -17 3
      vertex 18.2 -14.4 3
    endloop
  endfacet
  facet normal -0 0 1
    outer loop
      vertex 14.11 -14.4 3
      vertex 34 -17 3
      vertex 14.91 -14.4 3
    endloop
  endfacet
  facet normal 0 0 1
    outer loop
      vertex 4.75 -11.2 3
      vertex 14.11 -11.2 3
      vertex 4.75 11.2 3
    endloop
  endfacet
  facet normal 0 0 1
    outer loop
      vertex 14.11 -11.2 3
      vertex 4.75 -11.2 3
      vertex 14.11 -14.4 3
    endloop
  endfacet
  facet normal 0 0 1
    outer loop
      vertex 4.75 -14.4 3
      vertex 14.11 -14.4 3
      vertex 4.75 -11.2 3
    endloop
  endfacet
  facet normal -0 0 1
    outer loop
      vertex 4.75 -14.4 3
      vertex 34 -17 3
      vertex 14.11 -14.4 3
    endloop
  endfacet
  facet normal -0 0 1
    outer loop
      vertex 3.95 -14.4 3
      vertex 34 -17 3
      vertex 4.75 -14.4 3
    endloop
  endfacet
  facet normal 0 0 1
    outer loop
      vertex -7.95 -11.2 3
      vertex 3.95 -11.2 3
      vertex -7.95 11.2 3
    endloop
  endfacet
  facet normal 0 0 1
    outer loop
      vertex 3.95 -11.2 3
      vertex -7.95 -11.2 3
      vertex 3.95 -14.4 3
    endloop
  endfacet
  facet normal 0 0 1
    outer loop
      vertex -7.95 -14.4 3
      vertex 3.95 -14.4 3
      vertex -7.95 -11.2 3
    endloop
  endfacet
  facet normal 0 0 1
    outer loop
      vertex -30 -17 3
      vertex 3.95 -14.4 3
      vertex -7.95 -14.4 3
    endloop
  endfacet
  facet normal 0 0 1
    outer loop
      vertex -30 -17 3
      vertex -7.95 -14.4 3
      vertex -8.75 -14.4 3
    endloop
  endfacet
  facet normal 0 0 1
    outer loop
      vertex -18.11 -11.2 3
      vertex -8.75 -11.2 3
      vertex -18.11 11.2 3
    endloop
  endfacet
  facet normal 0 0 1
    outer loop
      vertex -8.75 -11.2 3
      vertex -18.11 -11.2 3
      vertex -8.75 -14.4 3
    endloop
  endfacet
  facet normal 0 0 1
    outer loop
      vertex -18.11 -14.4 3
      vertex -8.75 -14.4 3
      vertex -18.11 -11.2 3
    endloop
  endfacet
  facet normal 0 0 1
    outer loop
      vertex -30 -17 3
      vertex -8.75 -14.4 3
      vertex -18.11 -14.4 3
    endloop
  endfacet
  facet normal 0 0 1
    outer loop
      vertex -30 -17 3
      vertex -18.11 -14.4 3
      vertex -18.91 -14.4 3
    endloop
  endfacet
  facet normal 0 0 1
    outer loop
      vertex -22.2 -11.2 3
      vertex -18.91 -11.2 3
      vertex -22.2 11.2 3
    endloop
  endfacet
  facet normal 0 0 1
    outer loop
      vertex -18.91 -11.2 3
      vertex -22.2 -11.2 3
      vertex -18.91 -14.4 3
    endloop
  endfacet
  facet normal 0 0 1
    outer loop
      vertex -22.2 -14.4 3
      vertex -18.91 -14.4 3
      vertex -22.2 -11.2 3
    endloop
  endfacet
  facet normal 0 0 1
    outer loop
      vertex -30 -17 3
      vertex -18.91 -14.4 3
      vertex -22.2 -14.4 3
    endloop
  endfacet
  facet normal 0 0 1
    outer loop
      vertex -30 -17 3
      vertex -22.2 -14.4 3
      vertex -23.7 -14.4 3
    endloop
  endfacet
  facet normal 0 0 1
    outer loop
      vertex 3.95 -14.4 3
      vertex -30 -17 3
      vertex 34 -17 3
    endloop
  endfacet
  facet normal 0 0 1
    outer loop
      vertex -23.7 -11.2 3
      vertex -30 -17 3
      vertex -23.7 -14.4 3
    endloop
  endfacet
  facet normal 1 -0 0
    outer loop
      vertex 34 -17 3
      vertex 34 17 0
      vertex 34 17 3
    endloop
  endfacet
  facet normal 1 0 0
    outer loop
      vertex 34 17 0
      vertex 34 -17 3
      vertex 34 -17 0
    endloop
  endfacet
  facet normal 0 1 0
    outer loop
      vertex 34 17 3
      vertex 34 17 0
      vertex -30 17 3
    endloop
  endfacet
  facet normal 0 1 -0
    outer loop
      vertex -30 17 3
      vertex -34 17 28
      vertex -30 17 28
    endloop
  endfacet
  facet normal 0 1 0
    outer loop
      vertex -30 17 3
      vertex -34 17 0
      vertex -34 17 28
    endloop
  endfacet
  facet normal 0 1 0
    outer loop
      vertex -34 17 0
      vertex -30 17 3
      vertex 34 17 0
    endloop
  endfacet
  facet normal 0 0 -1
    outer loop
      vertex -34 -17 0
      vertex 34 17 0
      vertex 34 -17 0
    endloop
  endfacet
  facet normal -0 0 -1
    outer loop
      vertex 34 17 0
      vertex -34 -17 0
      vertex -34 17 0
    endloop
  endfacet
  facet normal 0 -1 0
    outer loop
      vertex -34 -17 28
      vertex -30 -17 3
      vertex -30 -17 28
    endloop
  endfacet
  facet normal 0 -1 0
    outer loop
      vertex -34 -17 0
      vertex -30 -17 3
      vertex -34 -17 28
    endloop
  endfacet
  facet normal 0 -1 0
    outer loop
      vertex 34 -17 0
      vertex -30 -17 3
      vertex -34 -17 0
    endloop
  endfacet
  facet normal 0 -1 0
    outer loop
      vertex -30 -17 3
      vertex 34 -17 0
      vertex 34 -17 3
    endloop
  endfacet
  facet normal -0 0 1
    outer loop
      vertex -34 17 28
      vertex -30 -17 28
      vertex -30 17 28
    endloop
  endfacet
  facet normal 0 0 1
    outer loop
      vertex -30 -17 28
      vertex -34 17 28
      vertex -34 -17 28
    endloop
  endfacet
  facet normal 1 0 0
    outer loop
      vertex -30 7 14
      vertex -30 17 28
      vertex -30 7 26
    endloop
  endfacet
  facet normal 1 0 0
    outer loop
      vertex -30 17 28
      vertex -30 -7 26
      vertex -30 7 26
    endloop
  endfacet
  facet normal 1 0 0
    outer loop
      vertex -30 -7 26
      vertex -30 -17 28
      vertex -30 -7 14
    endloop
  endfacet
  facet normal 1 -0 0
    outer loop
      vertex -30 -17 28
      vertex -30 -7 26
      vertex -30 17 28
    endloop
  endfacet
  facet normal 1 0 0
    outer loop
      vertex -30 17 28
      vertex -30 7 14
      vertex -30 17 3
    endloop
  endfacet
  facet normal 1 -0 0
    outer loop
      vertex -30 -7 14
      vertex -30 17 3
      vertex -30 7 14
    endloop
  endfacet
  facet normal 1 0 0
    outer loop
      vertex -30 -7 14
      vertex -30 -17 3
      vertex -30 17 3
    endloop
  endfacet
  facet normal 1 0 0
    outer loop
      vertex -30 -17 3
      vertex -30 -7 14
      vertex -30 -17 28
    endloop
  endfacet
  facet normal 0 0 -1
    outer loop
      vertex -34 -7 26
      vertex -30 7 26
      vertex -30 -7 26
    endloop
  endfacet
  facet normal -0 0 -1
    outer loop
      vertex -30 7 26
      vertex -34 -7 26
      vertex -34 7 26
    endloop
  endfacet
  facet normal -0 0 1
    outer loop
      vertex -34 7 14
      vertex -30 -7 14
      vertex -30 7 14
    endloop
  endfacet
  facet normal 0 0 1
    outer loop
      vertex -30 -7 14
      vertex -34 7 14
      vertex -34 -7 14
    endloop
  endfacet
  facet normal 0 1 -0
    outer loop
      vertex -30 -7 14
      vertex -34 -7 26
      vertex -30 -7 26
    endloop
  endfacet
  facet normal 0 1 0
    outer loop
      vertex -34 -7 26
      vertex -30 -7 14
      vertex -34 -7 14
    endloop
  endfacet
  facet normal 0 -1 0
    outer loop
      vertex -34 7 14
      vertex -30 7 26
      vertex -34 7 26
    endloop
  endfacet
  facet normal 0 -1 -0
    outer loop
      vertex -30 7 26
      vertex -34 7 14
      vertex -30 7 14
    endloop
  endfacet
endsolid OpenSCAD_Model
